<?xml version="1.0" encoding="utf-8"?>

<svg version="1.2" baseProfile="tiny" id="Layer_1" xmlns="http://www.w3.org/2000/svg" xmlns:xlink="http://www.w3.org/1999/xlink"
	 x="0px" y="0px" viewBox="0 0 256 256" xml:space="preserve">
<g>
	<g>
		<g>
			<polygon points="154.9,14.3 50.1,78.9 53,81.7 156.5,17.8 			"/>
			<path d="M148.5,0L38.6,67.7l7.8,7.6L152.8,9.7L148.5,0z"/>
		</g>
	</g>
</g>
<g>
	<path d="M215.2,143L201,120.5v-8.3L187,83.3l-45.4,26.1c3.7,8.7,1,19-6.8,24.7l-16.1,9.6l11.4,18l0.2,0.5
		c4.2,12.9-7.7,25.3-32.3,53.5c-14.9,16.9-20.9,34.5-21.5,40.4h91.4l-9.6-30.6l20.3-39.4c0.9-2.1,2.8-3.5,4.9-4h18.9
		c2.8,0,5.1-2.3,5.1-5.1l0.3-27.4l6.7-3C215.8,145.6,216,144.2,215.2,143z"/>
	<path d="M131.5,129.4c5.9-4.3,7.8-12.5,4.3-18.9l-1.9-3.4l50.5-29l-25.7-55.6l-102,62.8l59.1,53.2L131.5,129.4z"/>
</g>
</svg>
