<?xml version="1.0" encoding="iso-8859-1"?>

<svg version="1.1" id="Layer_1" xmlns="http://www.w3.org/2000/svg" xmlns:xlink="http://www.w3.org/1999/xlink" x="0px" y="0px"
	 viewBox="0 0 511.982 511.982" style="enable-background:new 0 0 511.982 511.982;" xml:space="preserve">
<g>
	<path style="fill:#E8563F;" d="M32.001,319.99c0,5.89-4.781,10.671-10.672,10.671s-10.672-4.781-10.672-10.671
		c0-5.891,4.781-10.672,10.672-10.672S32.001,314.099,32.001,319.99z"/>
	<path style="fill:#E8563F;" d="M74.655,319.99c0,5.89-4.766,10.671-10.656,10.671s-10.671-4.781-10.671-10.671
		c0-5.891,4.781-10.672,10.671-10.672S74.655,314.099,74.655,319.99z"/>
	<path style="fill:#E8563F;" d="M117.326,319.99c0,5.89-4.781,10.671-10.672,10.671s-10.655-4.781-10.655-10.671
		c0-5.891,4.765-10.672,10.655-10.672S117.326,314.099,117.326,319.99z"/>
	<path style="fill:#E8563F;" d="M159.996,319.99c0,5.89-4.78,10.671-10.671,10.671s-10.672-4.781-10.672-10.671
		c0-5.891,4.781-10.672,10.672-10.672S159.996,314.099,159.996,319.99z"/>
	<path style="fill:#E8563F;" d="M202.651,319.99c0,5.89-4.766,10.671-10.656,10.671s-10.672-4.781-10.672-10.671
		c0-5.891,4.781-10.672,10.672-10.672S202.651,314.099,202.651,319.99z"/>
	<path style="fill:#E8563F;" d="M245.321,319.99c0,5.89-4.781,10.671-10.671,10.671c-5.891,0-10.656-4.781-10.656-10.671
		c0-5.891,4.766-10.672,10.656-10.672S245.321,314.099,245.321,319.99z"/>
	<path style="fill:#E8563F;" d="M287.992,319.99c0,5.89-4.781,10.671-10.671,10.671c-5.891,0-10.672-4.781-10.672-10.671
		c0-5.891,4.781-10.672,10.672-10.672C283.211,309.318,287.992,314.099,287.992,319.99z"/>
	<path style="fill:#E8563F;" d="M330.647,319.99c0,5.89-4.766,10.671-10.655,10.671c-5.891,0-10.672-4.781-10.672-10.671
		c0-5.891,4.781-10.672,10.672-10.672C325.882,309.318,330.647,314.099,330.647,319.99z"/>
	<path style="fill:#E8563F;" d="M373.317,319.99c0,5.89-4.781,10.671-10.672,10.671c-5.89,0-10.655-4.781-10.655-10.671
		c0-5.891,4.766-10.672,10.655-10.672C368.536,309.318,373.317,314.099,373.317,319.99z"/>
	<path style="fill:#E8563F;" d="M415.989,319.99c0,5.89-4.781,10.671-10.672,10.671s-10.672-4.781-10.672-10.671
		c0-5.891,4.781-10.672,10.672-10.672S415.989,314.099,415.989,319.99z"/>
	<path style="fill:#E8563F;" d="M458.642,319.99c0,5.89-4.766,10.671-10.656,10.671s-10.67-4.781-10.67-10.671
		c0-5.891,4.78-10.672,10.67-10.672C453.877,309.318,458.642,314.099,458.642,319.99z"/>
	<path style="fill:#E8563F;" d="M501.313,319.99c0,5.89-4.78,10.671-10.671,10.671s-10.656-4.781-10.656-10.671
		c0-5.891,4.766-10.672,10.656-10.672S501.313,314.099,501.313,319.99z"/>
</g>
<rect x="0.001" y="319.992" style="fill:#FB6D51;" width="511.98" height="191.99"/>
<g>
	<path style="fill:#F6BB42;" d="M255.993,42.67c-5.891,0-10.672-4.781-10.672-10.671V10.672C245.321,4.781,250.102,0,255.993,0
		c5.891,0,10.656,4.781,10.656,10.672v21.327C266.649,37.889,261.884,42.67,255.993,42.67z"/>
	<path style="fill:#F6BB42;" d="M255.993,277.319c-5.891,0-10.672-4.765-10.672-10.655V245.32c0-5.891,4.781-10.656,10.672-10.656
		c5.891,0,10.656,4.765,10.656,10.656v21.344C266.649,272.555,261.884,277.319,255.993,277.319z"/>
</g>
<g>
	<path style="fill:#FFCE54;" d="M188.104,70.779c-4.156,4.172-10.921,4.172-15.077,0l-15.093-15.078
		c-4.156-4.172-4.156-10.922,0-15.094c4.171-4.156,10.921-4.156,15.093,0l15.077,15.094
		C192.276,59.858,192.276,66.623,188.104,70.779z"/>
	<path style="fill:#FFCE54;" d="M354.037,236.711c-4.172,4.171-10.922,4.171-15.077,0l-15.094-15.077
		c-4.155-4.172-4.155-10.922,0-15.094c4.172-4.156,10.922-4.156,15.094,0l15.077,15.094
		C358.209,225.79,358.209,232.539,354.037,236.711z"/>
</g>
<g>
	<path style="fill:#F6BB42;" d="M159.996,138.668c0,5.891-4.78,10.656-10.671,10.656h-21.328c-5.891,0-10.671-4.765-10.671-10.656
		s4.78-10.672,10.671-10.672h21.328C155.216,127.996,159.996,132.777,159.996,138.668z"/>
	<path style="fill:#F6BB42;" d="M394.645,138.668c0,5.891-4.766,10.656-10.656,10.656h-21.344c-5.89,0-10.655-4.765-10.655-10.656
		s4.766-10.672,10.655-10.672h21.344C389.88,127.996,394.645,132.777,394.645,138.668z"/>
</g>
<g>
	<path style="fill:#FFCE54;" d="M188.104,206.54c4.172,4.172,4.172,10.922,0,15.078l-15.077,15.093
		c-4.172,4.171-10.922,4.171-15.093,0c-4.156-4.172-4.156-10.921,0-15.093l15.093-15.078
		C177.183,202.368,183.948,202.368,188.104,206.54z"/>
	<path style="fill:#FFCE54;" d="M354.037,40.608c4.172,4.172,4.172,10.922,0,15.094L338.96,70.78
		c-4.172,4.172-10.922,4.172-15.094,0c-4.155-4.156-4.155-10.921,0-15.078l15.094-15.094
		C343.115,36.452,349.881,36.452,354.037,40.608z"/>
	<path style="fill:#FFCE54;" d="M255.993,213.322c-41.17,0-74.67-33.483-74.67-74.654s33.5-74.669,74.67-74.669
		c41.171,0,74.654,33.499,74.654,74.669S297.164,213.322,255.993,213.322z"/>
</g>
<path style="fill:#F6BB42;" d="M255.993,53.326c-47.139,0-85.341,38.202-85.341,85.341c0,47.124,38.202,85.325,85.341,85.325
	c47.124,0,85.325-38.202,85.325-85.325C341.318,91.529,303.117,53.326,255.993,53.326z M255.993,202.665
	c-35.296,0-63.998-28.718-63.998-63.998c0-35.296,28.702-63.998,63.998-63.998c35.28,0,63.999,28.702,63.999,63.998
	C319.992,173.948,291.273,202.665,255.993,202.665z"/>
<g>
	<path style="fill:#E8563F;" d="M74.671,405.315c-3.156,0-6.266-1.391-8.375-4.047c-3.656-4.625-2.875-11.328,1.75-14.984l27-21.327
		c4.624-3.655,11.327-2.875,14.983,1.75s2.859,11.328-1.75,14.984L81.28,403.018C79.311,404.565,76.983,405.315,74.671,405.315z"/>
	<path style="fill:#E8563F;" d="M117.326,447.986c-1.125,0-2.266-0.172-3.375-0.547c-5.594-1.875-8.609-7.905-6.734-13.499
		l8.906-26.688l-60.654-80.857c-3.547-4.718-2.594-11.405,2.125-14.937c4.718-3.531,11.405-2.578,14.937,2.125l64.014,85.341
		c2.109,2.797,2.703,6.453,1.594,9.781l-10.688,32C125.95,445.158,121.794,447.986,117.326,447.986z"/>
	<path style="fill:#E8563F;" d="M287.976,405.315c-1.906,0-3.859-0.516-5.594-1.594l-43.826-27.093
		c-5-3.109-6.563-9.672-3.453-14.687c3.094-5.016,9.671-6.563,14.671-3.453l43.827,27.092c5,3.094,6.563,9.672,3.453,14.688
		C295.039,403.534,291.555,405.315,287.976,405.315z"/>
	<path style="fill:#E8563F;" d="M415.989,469.312c-0.719,0-1.469-0.063-2.203-0.219c-5.766-1.219-9.453-6.875-8.234-12.64
		l9.469-44.873l-35.531-17.344c-4.781-2.328-7.109-7.844-5.453-12.89l21.141-64.67c1.828-5.609,7.859-8.656,13.453-6.828
		c5.609,1.828,8.656,7.859,6.828,13.453l-18.266,55.842l34.671,16.921c4.391,2.156,6.75,7,5.75,11.797l-11.188,52.998
		C425.363,465.875,420.926,469.312,415.989,469.312z"/>
	<path style="fill:#E8563F;" d="M223.994,469.312c-2.734,0-5.468-1.031-7.546-3.125c-4.172-4.156-4.172-10.905,0-15.076
		l27.967-27.968l-20.218-101.06c-1.156-5.781,2.594-11.391,8.359-12.547c5.781-1.156,11.405,2.578,12.562,8.359l21.328,106.669
		c0.703,3.5-0.391,7.109-2.922,9.625l-31.999,31.997C229.447,468.281,226.713,469.312,223.994,469.312z"/>
</g>
<g>
</g>
<g>
</g>
<g>
</g>
<g>
</g>
<g>
</g>
<g>
</g>
<g>
</g>
<g>
</g>
<g>
</g>
<g>
</g>
<g>
</g>
<g>
</g>
<g>
</g>
<g>
</g>
<g>
</g>
</svg>
